HIERARCHY
ROOT Joint1
{
	OFFSET 0.000000 0.000000 0.000000
	CHANNELS 6 Xposition Yposition Zposition Xrotation Yrotation Zrotation
	JOINT Joint2
	{
		OFFSET -0.000000 0.000000 1.456275
		CHANNELS 6 Xposition Yposition Zposition Xrotation Yrotation Zrotation
		JOINT Joint3
		{
			OFFSET -0.000000 0.000002 1.471446
			CHANNELS 6 Xposition Yposition Zposition Xrotation Yrotation Zrotation
			JOINT Joint4
			{
				OFFSET 0.625745 0.000000 0.917755
				CHANNELS 6 Xposition Yposition Zposition Xrotation Yrotation Zrotation
				JOINT Joint5
				{
					OFFSET -0.629534 0.000001 0.940221
					CHANNELS 6 Xposition Yposition Zposition Xrotation Yrotation Zrotation
					JOINT Joint6
					{
						OFFSET -0.000001 0.113772 1.960660
						CHANNELS 6 Xposition Yposition Zposition Xrotation Yrotation Zrotation
						JOINT Joint7
						{
							OFFSET -0.669733 -0.113771 0.388340
							CHANNELS 6 Xposition Yposition Zposition Xrotation Yrotation Zrotation
							End Site
							{
								OFFSET 0.005509 0.005509 0.438980
							}
						}
					}
				}
			}
		}
	}
}
MOTION
Frames: 24
Frame Time: 0.041667
0.000000 0.000000 0.000000 -0.000000 1.019410 9.196420 -0.000000 -0.000000 1.456275 -0.000000 -17.495533 -0.000001 -0.000000 0.000002 1.471446 -0.000000 -1.133459 6.213668 0.625744 0.000000 0.917755 0.000003 136.870871 0.000000 -0.629534 0.000001 0.940221 -0.000002 1.709733 78.173687 -0.000001 0.113772 1.960660 -88.303896 67.697720 -0.000004 -0.669733 -0.113771 0.388340 -0.885863 3.550174 145.190574 
0.000000 0.000000 0.000000 -0.000000 1.019410 9.484936 -0.000000 -0.000000 1.456275 -0.000000 -16.634371 0.000000 -0.000000 0.000002 1.471446 0.000000 -1.133459 6.409531 0.625745 0.000000 0.917755 0.000004 136.928627 0.000001 -0.629534 0.000001 0.940220 0.000001 1.709735 80.623888 -0.000001 0.113772 1.960661 -88.303889 66.999559 -0.000004 -0.669733 -0.113771 0.388340 -0.891460 3.549154 145.510992 
0.000000 0.000000 0.000000 -0.000000 1.019410 9.769612 -0.000000 0.000000 1.456275 0.000000 -15.784663 0.000001 -0.000000 0.000002 1.471446 0.000000 -1.133459 6.602790 0.625745 0.000000 0.917755 0.000003 136.985577 -0.000001 -0.629534 0.000001 0.940220 0.000001 1.709736 83.041488 -0.000001 0.113772 1.960660 -88.303882 66.310700 -0.000001 -0.669733 -0.113771 0.388340 -0.896980 3.548115 145.827121 
0.000000 0.000000 0.000000 -0.000000 1.019410 10.035385 -0.000000 -0.000000 1.456275 -0.000000 -14.991394 0.000001 -0.000000 0.000002 1.471446 -0.000000 -1.133459 6.783210 0.625745 0.000000 0.917755 0.000007 137.038771 -0.000004 -0.629534 0.000001 0.940220 0.000001 1.709736 85.298524 -0.000001 0.113772 1.960660 -88.303889 65.667583 -0.000004 -0.669733 -0.113771 0.388340 -0.902127 3.547118 146.122253 
0.000000 0.000000 0.000000 -0.000000 1.019410 10.271962 -0.000000 -0.000000 1.456275 -0.000000 -14.285255 -0.000001 -0.000000 0.000002 1.471446 0.000000 -1.133460 6.943816 0.625745 0.000000 0.917754 0.000002 137.086118 0.000000 -0.629534 0.000001 0.940221 0.000001 1.709736 87.307644 -0.000001 0.113772 1.960661 -88.303896 65.095111 0.000000 -0.669733 -0.113771 0.388340 -0.906703 3.546211 146.384983 
0.000000 0.000000 0.000000 -0.000000 1.019410 10.488219 -0.000000 -0.000000 1.456275 0.000000 -13.639773 0.000000 -0.000000 0.000002 1.471446 -0.000000 -1.133458 7.090623 0.625745 0.000000 0.917755 0.000001 137.129394 0.000000 -0.629534 0.000001 0.940221 0.000000 1.709740 89.144193 -0.000001 0.113773 1.960660 -88.303896 64.571809 -0.000003 -0.669733 -0.113771 0.388340 -0.910885 3.545362 146.625119 
0.000000 0.000000 0.000000 -0.000000 1.019410 10.697811 -0.000000 0.000000 1.456275 -0.000000 -13.014184 -0.000000 -0.000000 0.000002 1.471446 -0.000000 -1.133459 7.232912 0.625745 0.000000 0.917755 0.000001 137.171345 0.000002 -0.629534 0.000001 0.940221 -0.000001 1.709739 90.924141 -0.000001 0.113772 1.960661 -88.303889 64.064640 -0.000001 -0.669733 -0.113771 0.388340 -0.914931 3.544522 146.857878 
0.000000 0.000000 0.000000 -0.000000 1.019410 10.914396 -0.000000 -0.000000 1.456275 0.000000 -12.367718 -0.000001 -0.000000 0.000002 1.471446 -0.000000 -1.133459 7.379941 0.625745 0.000000 0.917755 0.000002 137.214676 0.000002 -0.629534 0.000001 0.940221 -0.000001 1.709737 92.763483 -0.000001 0.113772 1.960661 -88.303889 63.540540 -0.000005 -0.669733 -0.113771 0.388340 -0.919110 3.543638 147.098383 
0.000000 0.000000 0.000000 -0.000000 1.019410 11.151632 -0.000000 -0.000000 1.456275 0.000000 -11.659620 0.000001 -0.000000 0.000002 1.471446 0.000000 -1.133459 7.540991 0.625744 0.000000 0.917755 0.000001 137.262159 0.000001 -0.629534 0.000001 0.940221 -0.000000 1.709739 94.778184 -0.000001 0.113772 1.960661 -88.303882 62.966483 -0.000004 -0.669733 -0.113771 0.388340 -0.923683 3.542648 147.361837 
0.000000 0.000000 0.000000 -0.000000 1.019410 11.418294 -0.000000 -0.000000 1.456275 0.000000 -10.863685 0.000001 -0.000000 0.000002 1.471445 0.000000 -1.133458 7.722022 0.625744 0.000000 0.917755 0.000002 137.315530 -0.000000 -0.629534 0.000001 0.940221 -0.000001 1.709737 97.042795 -0.000001 0.113772 1.960660 -88.303889 62.321214 -0.000005 -0.669733 -0.113771 0.388340 -0.928819 3.541508 147.657953 
0.000000 0.000000 0.000000 -0.000000 1.019410 11.703639 -0.000000 -0.000000 1.456275 -0.000000 -10.011987 0.000000 -0.000000 0.000002 1.471446 -0.000000 -1.133460 7.915735 0.625745 0.000000 0.917755 0.000002 137.372644 0.000002 -0.629533 0.000001 0.940221 -0.000003 1.709737 99.466078 -0.000001 0.113773 1.960661 -88.303889 61.630737 -0.000006 -0.669734 -0.113771 0.388340 -0.934303 3.540265 147.974833 
0.000000 0.000000 0.000000 -0.000000 1.019410 11.992042 -0.000000 -0.000000 1.456275 0.000000 -9.151160 0.000001 -0.000000 0.000002 1.471446 -0.000000 -1.133458 8.111522 0.625745 0.000000 0.917755 0.000007 137.430346 -0.000002 -0.629534 0.000001 0.940221 -0.000002 1.709736 101.915322 -0.000001 0.113772 1.960660 -88.303882 60.932848 -0.000005 -0.669733 -0.113771 0.388340 -0.939846 3.538975 148.295087 
0.000000 0.000000 0.000000 -0.000000 1.019410 12.267879 -0.000000 0.000000 1.456275 0.000000 -8.327843 0.000000 -0.000000 0.000002 1.471445 0.000000 -1.133459 8.298774 0.625744 0.000000 0.917755 0.000004 137.485547 0.000001 -0.629533 0.000001 0.940221 0.000000 1.709733 104.257845 -0.000001 0.113772 1.960661 -88.303889 60.265382 -0.000004 -0.669733 -0.113771 0.388341 -0.945140 3.537711 148.601407 
0.000000 0.000000 0.000000 -0.000000 1.019410 12.519304 -0.000000 0.000000 1.456275 0.000000 -7.577391 -0.000001 -0.000000 0.000002 1.471446 -0.000000 -1.133458 8.469460 0.625745 0.000000 0.917755 0.000006 137.535858 -0.000001 -0.629534 0.000001 0.940221 0.000000 1.709737 106.393044 -0.000001 0.113772 1.960661 -88.303889 59.656990 -0.000008 -0.669733 -0.113771 0.388341 -0.949956 3.536532 148.880611 
0.000000 0.000000 0.000000 -0.000000 1.019410 12.749590 -0.000000 -0.000000 1.456275 -0.000000 -6.890037 -0.000001 -0.000000 0.000002 1.471445 0.000000 -1.133459 8.625792 0.625745 0.000000 0.917755 0.000003 137.581948 -0.000001 -0.629534 0.000001 0.940220 0.000000 1.709738 108.348718 -0.000001 0.113772 1.960661 -88.303889 59.099742 -0.000003 -0.669733 -0.113771 0.388340 -0.954362 3.535436 149.136361 
0.000000 0.000000 0.000000 -0.000000 1.019410 12.965783 -0.000000 0.000000 1.456275 0.000000 -6.244732 0.000000 -0.000000 0.000002 1.471446 -0.000000 -1.133459 8.772563 0.625745 0.000000 0.917755 0.000002 137.625211 -0.000001 -0.629534 0.000001 0.940221 -0.000002 1.709735 110.184776 -0.000001 0.113772 1.960661 -88.303882 58.576583 -0.000003 -0.669733 -0.113771 0.388340 -0.958494 3.534389 149.376428 
0.000000 0.000000 0.000000 -0.000000 1.019410 13.174947 -0.000000 0.000000 1.456275 -0.000000 -5.620425 0.000000 -0.000000 0.000002 1.471446 0.000000 -1.133459 8.914556 0.625745 0.000000 0.917755 0.000003 137.667080 -0.000001 -0.629534 0.000001 0.940221 -0.000001 1.709739 111.961055 -0.000001 0.113772 1.960660 -88.303882 58.070453 -0.000002 -0.669733 -0.113771 0.388340 -0.962490 3.533358 149.608696 
0.000000 0.000000 0.000000 -0.000000 1.019410 13.384128 -0.000000 -0.000000 1.456275 0.000000 -4.996068 -0.000000 -0.000000 0.000002 1.471446 -0.000000 -1.133459 9.056557 0.625745 0.000000 0.917755 0.000005 137.708935 -0.000002 -0.629534 0.000001 0.940221 -0.000000 1.709736 113.737499 -0.000001 0.113772 1.960660 -88.303889 57.564267 -0.000003 -0.669733 -0.113771 0.388340 -0.966475 3.532314 149.840977 
0.000000 0.000000 0.000000 -0.000000 1.019410 13.598961 -0.000000 -0.000000 1.456275 0.000000 -4.354832 0.000000 -0.000000 0.000002 1.471446 -0.000000 -1.133459 9.202400 0.625744 0.000000 0.917755 0.000000 137.751938 -0.000001 -0.629533 0.000001 0.940220 0.000001 1.709733 115.561965 -0.000001 0.113773 1.960661 -88.303889 57.044415 -0.000004 -0.669733 -0.113771 0.388340 -0.970572 3.531223 150.079542 
0.000000 0.000000 0.000000 -0.000000 1.019410 13.819433 -0.000000 0.000000 1.456275 -0.000000 -3.696768 -0.000000 -0.000000 0.000002 1.471446 -0.000000 -1.133459 9.352073 0.625744 0.000000 0.917755 0.000001 137.796048 -0.000000 -0.629534 0.000001 0.940221 -0.000001 1.709738 117.434325 -0.000001 0.113772 1.960660 -88.303889 56.510916 -0.000005 -0.669733 -0.113771 0.388340 -0.974771 3.530084 150.324377 
0.000000 0.000000 0.000000 -0.000000 1.019410 14.044115 -0.000000 -0.000000 1.456275 0.000000 -3.026143 -0.000000 -0.000000 0.000002 1.471446 -0.000000 -1.133459 9.504600 0.625745 0.000000 0.917755 0.000002 137.841004 0.000002 -0.629534 0.000001 0.940221 0.000001 1.709735 119.342406 -0.000001 0.113772 1.960660 -88.303882 55.967236 -0.000006 -0.669733 -0.113771 0.388340 -0.979041 3.528906 150.573870 
0.000000 0.000000 0.000000 -0.000000 1.019410 14.271571 -0.000000 -0.000000 1.456275 -0.000000 -2.347229 0.000001 -0.000000 0.000002 1.471446 -0.000000 -1.133459 9.659013 0.625744 0.000000 0.917755 0.000005 137.886534 0.000003 -0.629534 0.000001 0.940221 -0.000001 1.709734 121.274066 -0.000001 0.113772 1.960661 -88.303889 55.416835 -0.000000 -0.669733 -0.113771 0.388340 -0.983358 3.527693 150.826464 
0.000000 0.000000 0.000000 -0.000000 1.019410 14.500375 -0.000000 0.000000 1.456275 -0.000000 -1.664293 0.000000 -0.000000 0.000002 1.471445 -0.000000 -1.133459 9.814341 0.625745 0.000000 0.917754 0.000006 137.932323 -0.000000 -0.629534 0.000001 0.940220 -0.000001 1.709736 123.217173 -0.000001 0.113772 1.960660 -88.303889 54.863173 -0.000005 -0.669733 -0.113771 0.388340 -0.987695 3.526456 151.080533 
0.000000 0.000000 0.000000 -0.000000 1.019410 14.729113 -0.000000 -0.000000 1.456275 0.000000 -0.981556 0.000000 -0.000000 0.000002 1.471446 0.000000 -1.133459 9.969622 0.625745 0.000000 0.917755 0.000004 137.978099 -0.000001 -0.629534 0.000001 0.940221 -0.000001 1.709735 125.159706 -0.000001 0.113772 1.960661 -88.303889 54.309672 -0.000004 -0.669733 -0.113771 0.388340 -0.992033 3.525197 151.334534 
